<svg aria-hidden="true" style="position: absolute; width: 0; height: 0; overflow: hidden;" version="1.1" xmlns="http://www.w3.org/2000/svg" xmlns:xlink="http://www.w3.org/1999/xlink">
<defs>
<symbol id="icon-dots" viewBox="0 0 35 32">
<path fill="#267144" style="fill: var(--color1, #267144)" d="M2.327 1.164c0 0.643-0.521 1.164-1.164 1.164s-1.164-0.521-1.164-1.164c0-0.643 0.521-1.164 1.164-1.164s1.164 0.521 1.164 1.164z"></path>
<path fill="#267144" style="fill: var(--color1, #267144)" d="M2.327 11.055c0 0.643-0.521 1.164-1.164 1.164s-1.164-0.521-1.164-1.164c0-0.643 0.521-1.164 1.164-1.164s1.164 0.521 1.164 1.164z"></path>
<path fill="#267144" style="fill: var(--color1, #267144)" d="M2.327 20.945c0 0.643-0.521 1.164-1.164 1.164s-1.164-0.521-1.164-1.164c0-0.643 0.521-1.164 1.164-1.164s1.164 0.521 1.164 1.164z"></path>
<path fill="#267144" style="fill: var(--color1, #267144)" d="M2.327 30.836c0 0.643-0.521 1.164-1.164 1.164s-1.164-0.521-1.164-1.164c0-0.643 0.521-1.164 1.164-1.164s1.164 0.521 1.164 1.164z"></path>
<path fill="#267144" style="fill: var(--color1, #267144)" d="M13.091 1.164c0 0.643-0.521 1.164-1.164 1.164s-1.164-0.521-1.164-1.164c0-0.643 0.521-1.164 1.164-1.164s1.164 0.521 1.164 1.164z"></path>
<path fill="#267144" style="fill: var(--color1, #267144)" d="M13.091 11.055c0 0.643-0.521 1.164-1.164 1.164s-1.164-0.521-1.164-1.164c0-0.643 0.521-1.164 1.164-1.164s1.164 0.521 1.164 1.164z"></path>
<path fill="#267144" style="fill: var(--color1, #267144)" d="M13.091 20.945c0 0.643-0.521 1.164-1.164 1.164s-1.164-0.521-1.164-1.164c0-0.643 0.521-1.164 1.164-1.164s1.164 0.521 1.164 1.164z"></path>
<path fill="#267144" style="fill: var(--color1, #267144)" d="M13.091 30.836c0 0.643-0.521 1.164-1.164 1.164s-1.164-0.521-1.164-1.164c0-0.643 0.521-1.164 1.164-1.164s1.164 0.521 1.164 1.164z"></path>
<path fill="#267144" style="fill: var(--color1, #267144)" d="M23.855 1.164c0 0.643-0.521 1.164-1.164 1.164s-1.164-0.521-1.164-1.164c0-0.643 0.521-1.164 1.164-1.164s1.164 0.521 1.164 1.164z"></path>
<path fill="#267144" style="fill: var(--color1, #267144)" d="M23.855 11.055c0 0.643-0.521 1.164-1.164 1.164s-1.164-0.521-1.164-1.164c0-0.643 0.521-1.164 1.164-1.164s1.164 0.521 1.164 1.164z"></path>
<path fill="#267144" style="fill: var(--color1, #267144)" d="M23.855 20.945c0 0.643-0.521 1.164-1.164 1.164s-1.164-0.521-1.164-1.164c0-0.643 0.521-1.164 1.164-1.164s1.164 0.521 1.164 1.164z"></path>
<path fill="#267144" style="fill: var(--color1, #267144)" d="M23.855 30.836c0 0.643-0.521 1.164-1.164 1.164s-1.164-0.521-1.164-1.164c0-0.643 0.521-1.164 1.164-1.164s1.164 0.521 1.164 1.164z"></path>
<path fill="#267144" style="fill: var(--color1, #267144)" d="M34.618 1.164c0 0.643-0.521 1.164-1.164 1.164s-1.164-0.521-1.164-1.164c0-0.643 0.521-1.164 1.164-1.164s1.164 0.521 1.164 1.164z"></path>
<path fill="#267144" style="fill: var(--color1, #267144)" d="M34.618 11.055c0 0.643-0.521 1.164-1.164 1.164s-1.164-0.521-1.164-1.164c0-0.643 0.521-1.164 1.164-1.164s1.164 0.521 1.164 1.164z"></path>
<path fill="#267144" style="fill: var(--color1, #267144)" d="M34.618 20.945c0 0.643-0.521 1.164-1.164 1.164s-1.164-0.521-1.164-1.164c0-0.643 0.521-1.164 1.164-1.164s1.164 0.521 1.164 1.164z"></path>
<path fill="#267144" style="fill: var(--color1, #267144)" d="M34.618 30.836c0 0.643-0.521 1.164-1.164 1.164s-1.164-0.521-1.164-1.164c0-0.643 0.521-1.164 1.164-1.164s1.164 0.521 1.164 1.164z"></path>
</symbol>
<symbol id="icon-star" viewBox="0 0 32 32">
<path fill="#f5d426" style="fill: var(--color2, #f5d426)" d="M25.956 31.087l-9.956-7.317-9.956 7.317 3.823-11.817-9.951-7.271h12.285l3.799-11.837 3.799 11.837h12.284l-9.949 7.271 3.823 11.817z"></path>
</symbol>
<symbol id="icon-Line-2" viewBox="0 0 48 32">
<path fill="#224f34" style="fill: var(--color3, #224f34)" d="M47.414 17.414c0.781-0.781 0.781-2.047 0-2.828l-12.728-12.728c-0.781-0.781-2.047-0.781-2.828 0s-0.781 2.047 0 2.828l11.314 11.314-11.314 11.314c-0.781 0.781-0.781 2.047 0 2.828s2.047 0.781 2.828 0l12.728-12.728zM0 18h46v-4h-46v4z"></path>
</symbol>
<symbol id="icon-Line-6" viewBox="0 0 1 32">
<path stroke-width="1.1852" stroke-miterlimit="4" stroke-linecap="round" stroke-linejoin="miter" d="M0.593 0.593v30.815"></path>
</symbol>
<symbol id="icon-suitcase"  height="30px" width="30px" viewBox="0 0 30 30">
<path fill="#224f34" style="fill: var(--color3, #224f34)" d="M19.535 5.581h-2.791c0-1.48-0.588-2.9-1.635-3.947s-2.466-1.635-3.947-1.635c-1.48 0-2.9 0.588-3.947 1.635s-1.635 2.466-1.635 3.947h-2.791c-0.74 0-1.45 0.294-1.973 0.817s-0.817 1.233-0.817 1.973v9.302c0.001 1.233 0.492 2.415 1.364 3.287s2.054 1.362 3.287 1.364h8.372c0.247 0 0.483-0.098 0.658-0.272s0.272-0.411 0.272-0.658c0-0.247-0.098-0.483-0.272-0.658s-0.411-0.272-0.658-0.272h-8.372c-0.74 0-1.45-0.294-1.973-0.817s-0.817-1.233-0.817-1.973v-9.302c0-0.247 0.098-0.483 0.272-0.658s0.411-0.272 0.658-0.272h2.791v1.86c0 0.247 0.098 0.483 0.272 0.658s0.411 0.272 0.658 0.272c0.247 0 0.483-0.098 0.658-0.272s0.272-0.411 0.272-0.658v-1.86h7.442v1.86c0 0.247 0.098 0.483 0.272 0.658s0.411 0.272 0.658 0.272c0.247 0 0.483-0.098 0.658-0.272s0.272-0.411 0.272-0.658v-1.86h2.791c0.247 0 0.483 0.098 0.658 0.272s0.272 0.411 0.272 0.658v4.651c0 0.247 0.098 0.483 0.272 0.658s0.411 0.272 0.658 0.272c0.247 0 0.483-0.098 0.658-0.272s0.272-0.411 0.272-0.658v-4.651c0-0.74-0.294-1.45-0.817-1.973s-1.233-0.817-1.973-0.817zM7.442 5.581c0-0.987 0.392-1.933 1.090-2.631s1.644-1.090 2.631-1.090 1.933 0.392 2.631 1.090c0.698 0.698 1.090 1.644 1.090 2.631h-7.442z"></path>
<path fill="#10ff70" style="fill: var(--color4, #10ff70)" d="M23.814 20.093c0 2.055-1.666 3.721-3.721 3.721s-3.721-1.666-3.721-3.721c0-2.055 1.666-3.721 3.721-3.721s3.721 1.666 3.721 3.721z"></path>
</symbol>
</defs>
</svg>

